<svg xmlns="http://www.w3.org/2000/svg" width="24" height="24" viewBox="0 0 24 24" fill="none">
  <path d="M12 15.5a3.5 3.5 0 1 0 0-7 3.5 3.5 0 0 0 0 7Z" stroke="#e2e8f0" stroke-width="1.6"/>
  <path d="M19.4 15a7.9 7.9 0 0 0 .1-1l2-1.2-2-3.4-2.3.6a7.5 7.5 0 0 0-1.7-1L14 6h-4L8.5 9a7.5 7.5 0 0 0-1.7 1l-2.3-.6-2 3.4 2 1.2a7.9 7.9 0 0 0 .1 1 7.9 7.9 0 0 0-.1 1l-2 1.2 2 3.4 2.3-.6a7.5 7.5 0 0 0 1.7 1L10 22h4l1.5-3a7.5 7.5 0 0 0 1.7-1l2.3.6 2-3.4-2-1.2a7.9 7.9 0 0 0-.1-1Z" stroke="#e2e8f0" stroke-width="1.2" stroke-linejoin="round"/>
</svg>
